<?xml version="1.0" encoding="UTF-8"?>
<svg xmlns="http://www.w3.org/2000/svg" xmlns:xlink="http://www.w3.org/1999/xlink" width="375pt" height="374.999991pt" viewBox="0 0 375 374.999991" version="1.2">
<defs>
<clipPath id="clip1">
  <path d="M 23.554688 149 L 351.164062 149 L 351.164062 331.503906 L 23.554688 331.503906 Z M 23.554688 149 "/>
</clipPath>
<clipPath id="clip2">
  <path d="M 23.554688 133 L 351.164062 133 L 351.164062 316 L 23.554688 316 Z M 23.554688 133 "/>
</clipPath>
<clipPath id="clip3">
  <path d="M 59 58.539062 L 315 58.539062 L 315 201 L 59 201 Z M 59 58.539062 "/>
</clipPath>
<clipPath id="clip4">
  <path d="M 65 16.78125 L 310.183594 16.78125 L 310.183594 195.28125 L 65 195.28125 Z M 65 16.78125 "/>
</clipPath>
</defs>
<g id="surface1">
<g clip-path="url(#clip1)" clip-rule="nonzero">
<path style=" stroke:none;fill-rule:nonzero;fill:rgb(57.249451%,58.039856%,59.21936%);fill-opacity:1;" d="M 351.164062 240.539062 C 351.164062 242.03125 351.097656 243.519531 350.964844 245.007812 C 350.835938 246.496094 350.636719 247.980469 350.375 249.464844 C 350.113281 250.949219 349.785156 252.425781 349.390625 253.902344 C 348.996094 255.375 348.539062 256.84375 348.015625 258.304688 C 347.492188 259.765625 346.90625 261.21875 346.253906 262.664062 C 345.601562 264.109375 344.886719 265.546875 344.109375 266.972656 C 343.332031 268.398438 342.492188 269.8125 341.589844 271.214844 C 340.683594 272.621094 339.71875 274.007812 338.695312 275.386719 C 337.667969 276.761719 336.582031 278.125 335.4375 279.472656 C 334.289062 280.820312 333.085938 282.148438 331.820312 283.464844 C 330.558594 284.777344 329.238281 286.074219 327.859375 287.351562 C 326.480469 288.632812 325.046875 289.890625 323.558594 291.128906 C 322.066406 292.367188 320.523438 293.585938 318.929688 294.78125 C 317.332031 295.980469 315.683594 297.15625 313.980469 298.304688 C 312.28125 299.457031 310.53125 300.585938 308.730469 301.691406 C 306.929688 302.792969 305.082031 303.875 303.1875 304.925781 C 301.289062 305.980469 299.351562 307.007812 297.363281 308.007812 C 295.375 309.011719 293.347656 309.984375 291.273438 310.929688 C 289.203125 311.875 287.089844 312.789062 284.9375 313.679688 C 282.785156 314.566406 280.59375 315.421875 278.363281 316.25 C 276.136719 317.078125 273.871094 317.875 271.570312 318.644531 C 269.273438 319.410156 266.941406 320.144531 264.574219 320.84375 C 262.210938 321.546875 259.816406 322.21875 257.394531 322.855469 C 254.972656 323.492188 252.519531 324.097656 250.042969 324.667969 C 247.566406 325.238281 245.066406 325.773438 242.542969 326.273438 C 240.019531 326.777344 237.472656 327.242188 234.910156 327.675781 C 232.34375 328.109375 229.761719 328.507812 227.160156 328.867188 C 224.558594 329.230469 221.945312 329.558594 219.316406 329.847656 C 216.6875 330.136719 214.046875 330.394531 211.394531 330.613281 C 208.742188 330.832031 206.082031 331.011719 203.414062 331.160156 C 200.746094 331.304688 198.074219 331.414062 195.394531 331.488281 C 192.71875 331.5625 190.039062 331.597656 187.359375 331.597656 C 184.679688 331.597656 182 331.5625 179.320312 331.488281 C 176.644531 331.414062 173.972656 331.304688 171.304688 331.160156 C 168.636719 331.011719 165.976562 330.832031 163.324219 330.613281 C 160.671875 330.394531 158.03125 330.136719 155.402344 329.847656 C 152.773438 329.558594 150.15625 329.230469 147.558594 328.867188 C 144.957031 328.507812 142.375 328.109375 139.808594 327.675781 C 137.242188 327.242188 134.699219 326.777344 132.175781 326.273438 C 129.652344 325.773438 127.148438 325.238281 124.671875 324.667969 C 122.195312 324.097656 119.746094 323.492188 117.324219 322.855469 C 114.898438 322.21875 112.507812 321.546875 110.140625 320.84375 C 107.777344 320.144531 105.445312 319.410156 103.144531 318.644531 C 100.847656 317.875 98.582031 317.078125 96.355469 316.25 C 94.125 315.421875 91.933594 314.566406 89.78125 313.679688 C 87.628906 312.789062 85.515625 311.875 83.441406 310.929688 C 81.371094 309.984375 79.339844 309.011719 77.355469 308.007812 C 75.367188 307.007812 73.425781 305.980469 71.53125 304.925781 C 69.636719 303.875 67.789062 302.792969 65.988281 301.691406 C 64.1875 300.585938 62.4375 299.457031 60.734375 298.304688 C 59.035156 297.15625 57.386719 295.980469 55.789062 294.78125 C 54.191406 293.585938 52.648438 292.367188 51.160156 291.128906 C 49.671875 289.890625 48.238281 288.632812 46.859375 287.351562 C 45.480469 286.074219 44.160156 284.777344 42.894531 283.464844 C 41.632812 282.148438 40.425781 280.820312 39.28125 279.472656 C 38.136719 278.125 37.050781 276.761719 36.023438 275.386719 C 34.996094 274.007812 34.03125 272.621094 33.128906 271.214844 C 32.226562 269.8125 31.386719 268.398438 30.609375 266.972656 C 29.828125 265.546875 29.113281 264.109375 28.464844 262.664062 C 27.8125 261.21875 27.222656 259.765625 26.703125 258.304688 C 26.179688 256.84375 25.71875 255.375 25.328125 253.902344 C 24.933594 252.425781 24.605469 250.949219 24.34375 249.464844 C 24.078125 247.980469 23.882812 246.496094 23.75 245.007812 C 23.621094 243.519531 23.554688 242.03125 23.554688 240.539062 C 23.554688 239.050781 23.621094 237.5625 23.75 236.074219 C 23.882812 234.582031 24.078125 233.097656 24.34375 231.613281 C 24.605469 230.132812 24.933594 228.652344 25.328125 227.179688 C 25.71875 225.707031 26.179688 224.238281 26.703125 222.777344 C 27.222656 221.3125 27.8125 219.859375 28.464844 218.414062 C 29.113281 216.96875 29.828125 215.535156 30.609375 214.109375 C 31.386719 212.683594 32.226562 211.265625 33.128906 209.863281 C 34.03125 208.460938 34.996094 207.070312 36.023438 205.695312 C 37.050781 204.316406 38.136719 202.957031 39.28125 201.609375 C 40.425781 200.261719 41.632812 198.929688 42.894531 197.617188 C 44.160156 196.300781 45.480469 195.003906 46.859375 193.726562 C 48.238281 192.449219 49.671875 191.191406 51.160156 189.953125 C 52.648438 188.710938 54.191406 187.496094 55.789062 186.296875 C 57.386719 185.101562 59.035156 183.925781 60.734375 182.773438 C 62.4375 181.621094 64.1875 180.492188 65.988281 179.390625 C 67.789062 178.285156 69.636719 177.207031 71.53125 176.152344 C 73.425781 175.097656 75.367188 174.070312 77.355469 173.070312 C 79.339844 172.070312 81.371094 171.097656 83.441406 170.152344 C 85.515625 169.207031 87.628906 168.289062 89.78125 167.402344 C 91.933594 166.515625 94.125 165.65625 96.355469 164.828125 C 98.582031 164 100.847656 163.203125 103.144531 162.4375 C 105.445312 161.671875 107.777344 160.9375 110.140625 160.234375 C 112.507812 159.53125 114.898438 158.863281 117.324219 158.226562 C 119.746094 157.589844 122.195312 156.984375 124.671875 156.414062 C 127.148438 155.84375 129.652344 155.308594 132.175781 154.804688 C 134.699219 154.304688 137.242188 153.835938 139.808594 153.402344 C 142.375 152.972656 144.957031 152.574219 147.558594 152.210938 C 150.15625 151.851562 152.773438 151.523438 155.402344 151.234375 C 158.03125 150.941406 160.671875 150.6875 163.324219 150.46875 C 165.976562 150.25 168.636719 150.066406 171.304688 149.921875 C 173.972656 149.777344 176.644531 149.664062 179.320312 149.59375 C 182 149.519531 184.679688 149.484375 187.359375 149.484375 C 190.039062 149.484375 192.71875 149.519531 195.394531 149.59375 C 198.074219 149.664062 200.746094 149.777344 203.414062 149.921875 C 206.082031 150.066406 208.742188 150.25 211.394531 150.46875 C 214.046875 150.6875 216.6875 150.941406 219.316406 151.234375 C 221.945312 151.523438 224.558594 151.851562 227.160156 152.210938 C 229.761719 152.574219 232.34375 152.972656 234.910156 153.402344 C 237.472656 153.835938 240.019531 154.304688 242.542969 154.804688 C 245.066406 155.308594 247.566406 155.84375 250.042969 156.414062 C 252.519531 156.984375 254.972656 157.589844 257.394531 158.226562 C 259.816406 158.863281 262.210938 159.53125 264.574219 160.234375 C 266.941406 160.9375 269.273438 161.671875 271.570312 162.4375 C 273.871094 163.203125 276.136719 164 278.363281 164.828125 C 280.59375 165.65625 282.785156 166.515625 284.9375 167.402344 C 287.089844 168.289062 289.203125 169.207031 291.273438 170.152344 C 293.347656 171.097656 295.375 172.070312 297.363281 173.070312 C 299.351562 174.070312 301.289062 175.097656 303.1875 176.152344 C 305.082031 177.207031 306.929688 178.285156 308.730469 179.390625 C 310.53125 180.492188 312.28125 181.621094 313.980469 182.773438 C 315.683594 183.925781 317.332031 185.101562 318.929688 186.296875 C 320.523438 187.496094 322.066406 188.710938 323.558594 189.953125 C 325.046875 191.191406 326.480469 192.449219 327.859375 193.726562 C 329.238281 195.003906 330.558594 196.300781 331.820312 197.617188 C 333.085938 198.929688 334.289062 200.261719 335.4375 201.609375 C 336.582031 202.957031 337.667969 204.316406 338.695312 205.695312 C 339.71875 207.070312 340.683594 208.460938 341.589844 209.863281 C 342.492188 211.265625 343.332031 212.679688 344.109375 214.109375 C 344.886719 215.535156 345.601562 216.96875 346.253906 218.414062 C 346.90625 219.859375 347.492188 221.3125 348.015625 222.777344 C 348.539062 224.238281 348.996094 225.707031 349.390625 227.179688 C 349.785156 228.652344 350.113281 230.132812 350.375 231.613281 C 350.636719 233.097656 350.835938 234.582031 350.964844 236.074219 C 351.097656 237.5625 351.164062 239.050781 351.164062 240.539062 Z M 351.164062 240.539062 "/>
</g>
<g clip-path="url(#clip2)" clip-rule="nonzero">
<path style=" stroke:none;fill-rule:nonzero;fill:rgb(79.998779%,83.918762%,86.268616%);fill-opacity:1;" d="M 351.164062 224.605469 C 351.164062 226.09375 351.097656 227.585938 350.964844 229.074219 C 350.835938 230.5625 350.636719 232.046875 350.375 233.53125 C 350.113281 235.011719 349.785156 236.492188 349.390625 237.964844 C 348.996094 239.441406 348.539062 240.90625 348.015625 242.371094 C 347.492188 243.832031 346.90625 245.285156 346.253906 246.730469 C 345.601562 248.175781 344.886719 249.613281 344.109375 251.039062 C 343.332031 252.464844 342.492188 253.878906 341.589844 255.28125 C 340.683594 256.683594 339.71875 258.074219 338.695312 259.453125 C 337.667969 260.828125 336.582031 262.191406 335.4375 263.539062 C 334.289062 264.882812 333.085938 266.214844 331.820312 267.53125 C 330.558594 268.84375 329.238281 270.140625 327.859375 271.417969 C 326.480469 272.695312 325.046875 273.953125 323.558594 275.195312 C 322.066406 276.433594 320.523438 277.652344 318.929688 278.847656 C 317.332031 280.042969 315.683594 281.21875 313.980469 282.371094 C 312.28125 283.523438 310.53125 284.652344 308.730469 285.753906 C 306.929688 286.859375 305.082031 287.9375 303.1875 288.992188 C 301.289062 290.046875 299.351562 291.074219 297.363281 292.074219 C 295.375 293.074219 293.347656 294.046875 291.273438 294.992188 C 289.203125 295.9375 287.089844 296.855469 284.9375 297.742188 C 282.785156 298.628906 280.59375 299.488281 278.363281 300.316406 C 276.136719 301.144531 273.871094 301.941406 271.570312 302.707031 C 269.273438 303.472656 266.941406 304.207031 264.574219 304.910156 C 262.210938 305.613281 259.816406 306.28125 257.394531 306.921875 C 254.972656 307.558594 252.519531 308.160156 250.042969 308.730469 C 247.566406 309.300781 245.066406 309.835938 242.542969 310.339844 C 240.019531 310.839844 237.472656 311.308594 234.910156 311.742188 C 232.34375 312.175781 229.761719 312.570312 227.160156 312.933594 C 224.558594 313.296875 221.945312 313.621094 219.316406 313.914062 C 216.6875 314.203125 214.046875 314.457031 211.394531 314.675781 C 208.742188 314.894531 206.082031 315.078125 203.414062 315.222656 C 200.746094 315.371094 198.074219 315.480469 195.394531 315.554688 C 192.71875 315.625 190.039062 315.664062 187.359375 315.664062 C 184.679688 315.664062 182 315.625 179.320312 315.554688 C 176.644531 315.480469 173.972656 315.371094 171.304688 315.222656 C 168.636719 315.078125 165.976562 314.894531 163.324219 314.675781 C 160.671875 314.457031 158.03125 314.203125 155.402344 313.914062 C 152.773438 313.621094 150.15625 313.296875 147.558594 312.933594 C 144.957031 312.570312 142.375 312.175781 139.808594 311.742188 C 137.242188 311.308594 134.699219 310.839844 132.175781 310.339844 C 129.652344 309.835938 127.148438 309.300781 124.671875 308.730469 C 122.195312 308.160156 119.746094 307.558594 117.324219 306.921875 C 114.898438 306.28125 112.507812 305.613281 110.140625 304.910156 C 107.777344 304.207031 105.445312 303.472656 103.144531 302.707031 C 100.847656 301.941406 98.582031 301.144531 96.355469 300.316406 C 94.125 299.488281 91.933594 298.628906 89.78125 297.742188 C 87.628906 296.855469 85.515625 295.9375 83.441406 294.992188 C 81.371094 294.046875 79.339844 293.074219 77.355469 292.074219 C 75.367188 291.074219 73.425781 290.046875 71.53125 288.992188 C 69.636719 287.9375 67.789062 286.859375 65.988281 285.753906 C 64.1875 284.652344 62.4375 283.523438 60.734375 282.371094 C 59.035156 281.21875 57.386719 280.042969 55.789062 278.847656 C 54.191406 277.652344 52.648438 276.433594 51.160156 275.195312 C 49.671875 273.953125 48.238281 272.695312 46.859375 271.417969 C 45.480469 270.140625 44.160156 268.84375 42.894531 267.53125 C 41.632812 266.214844 40.425781 264.882812 39.28125 263.539062 C 38.136719 262.191406 37.050781 260.828125 36.023438 259.453125 C 34.996094 258.074219 34.03125 256.683594 33.128906 255.28125 C 32.226562 253.878906 31.386719 252.464844 30.609375 251.039062 C 29.828125 249.613281 29.113281 248.175781 28.464844 246.730469 C 27.8125 245.285156 27.222656 243.832031 26.703125 242.371094 C 26.179688 240.90625 25.71875 239.441406 25.328125 237.964844 C 24.933594 236.492188 24.605469 235.011719 24.34375 233.53125 C 24.078125 232.046875 23.882812 230.5625 23.75 229.074219 C 23.621094 227.585938 23.554688 226.09375 23.554688 224.605469 C 23.554688 223.113281 23.621094 221.625 23.75 220.136719 C 23.882812 218.648438 24.078125 217.164062 24.34375 215.679688 C 24.605469 214.195312 24.933594 212.71875 25.328125 211.246094 C 25.71875 209.769531 26.179688 208.300781 26.703125 206.839844 C 27.222656 205.378906 27.8125 203.925781 28.464844 202.480469 C 29.113281 201.035156 29.828125 199.597656 30.609375 198.171875 C 31.386719 196.746094 32.226562 195.332031 33.128906 193.929688 C 34.03125 192.527344 34.996094 191.136719 36.023438 189.757812 C 37.050781 188.382812 38.136719 187.019531 39.28125 185.671875 C 40.425781 184.324219 41.632812 182.996094 42.894531 181.679688 C 44.160156 180.367188 45.480469 179.070312 46.859375 177.792969 C 48.238281 176.515625 49.671875 175.253906 51.160156 174.015625 C 52.648438 172.777344 54.191406 171.558594 55.789062 170.363281 C 57.386719 169.164062 59.035156 167.992188 60.734375 166.839844 C 62.4375 165.6875 64.1875 164.558594 65.988281 163.453125 C 67.789062 162.351562 69.636719 161.273438 71.53125 160.21875 C 73.425781 159.164062 75.367188 158.136719 77.355469 157.136719 C 79.339844 156.136719 81.371094 155.164062 83.441406 154.21875 C 85.515625 153.273438 87.628906 152.355469 89.78125 151.46875 C 91.933594 150.578125 94.125 149.722656 96.355469 148.894531 C 98.582031 148.066406 100.847656 147.269531 103.144531 146.503906 C 105.445312 145.738281 107.777344 145.003906 110.140625 144.300781 C 112.507812 143.597656 114.898438 142.925781 117.324219 142.289062 C 119.746094 141.652344 122.195312 141.050781 124.671875 140.480469 C 127.148438 139.910156 129.652344 139.371094 132.175781 138.871094 C 134.699219 138.367188 137.242188 137.902344 139.808594 137.46875 C 142.375 137.035156 144.957031 136.640625 147.558594 136.277344 C 150.15625 135.914062 152.773438 135.589844 155.402344 135.296875 C 158.03125 135.007812 160.671875 134.753906 163.324219 134.535156 C 165.976562 134.316406 168.636719 134.132812 171.304688 133.988281 C 173.972656 133.839844 176.644531 133.730469 179.320312 133.65625 C 182 133.585938 184.679688 133.546875 187.359375 133.546875 C 190.039062 133.546875 192.71875 133.585938 195.394531 133.65625 C 198.074219 133.730469 200.746094 133.839844 203.414062 133.988281 C 206.082031 134.132812 208.742188 134.316406 211.394531 134.535156 C 214.046875 134.753906 216.6875 135.007812 219.316406 135.296875 C 221.945312 135.589844 224.558594 135.914062 227.160156 136.277344 C 229.761719 136.640625 232.34375 137.035156 234.910156 137.46875 C 237.472656 137.902344 240.019531 138.367188 242.542969 138.871094 C 245.066406 139.371094 247.566406 139.910156 250.042969 140.480469 C 252.519531 141.050781 254.972656 141.652344 257.394531 142.289062 C 259.816406 142.925781 262.210938 143.597656 264.574219 144.300781 C 266.941406 145.003906 269.273438 145.738281 271.570312 146.503906 C 273.871094 147.269531 276.136719 148.066406 278.363281 148.894531 C 280.59375 149.722656 282.785156 150.578125 284.9375 151.46875 C 287.089844 152.355469 289.203125 153.273438 291.273438 154.21875 C 293.347656 155.164062 295.375 156.136719 297.363281 157.136719 C 299.351562 158.136719 301.289062 159.164062 303.1875 160.21875 C 305.082031 161.273438 306.929688 162.351562 308.730469 163.453125 C 310.53125 164.558594 312.28125 165.6875 313.980469 166.839844 C 315.683594 167.992188 317.332031 169.164062 318.929688 170.363281 C 320.523438 171.558594 322.066406 172.777344 323.558594 174.015625 C 325.046875 175.253906 326.480469 176.515625 327.859375 177.792969 C 329.238281 179.070312 330.558594 180.367188 331.820312 181.679688 C 333.085938 182.996094 334.289062 184.324219 335.4375 185.671875 C 336.582031 187.019531 337.667969 188.382812 338.695312 189.757812 C 339.71875 191.136719 340.683594 192.527344 341.589844 193.929688 C 342.492188 195.332031 343.332031 196.746094 344.109375 198.171875 C 344.886719 199.597656 345.601562 201.035156 346.253906 202.480469 C 346.90625 203.925781 347.492188 205.378906 348.015625 206.839844 C 348.539062 208.300781 348.996094 209.769531 349.390625 211.246094 C 349.785156 212.71875 350.113281 214.195312 350.375 215.679688 C 350.636719 217.164062 350.835938 218.648438 350.964844 220.136719 C 351.097656 221.625 351.164062 223.113281 351.164062 224.605469 Z M 351.164062 224.605469 "/>
</g>
<path style=" stroke:none;fill-rule:nonzero;fill:rgb(94.509888%,56.469727%,12.548828%);fill-opacity:1;" d="M 314.761719 208.160156 C 314.761719 247.269531 257.722656 278.984375 187.359375 278.984375 C 116.996094 278.984375 59.957031 247.269531 59.957031 208.160156 C 59.957031 169.050781 116.996094 137.335938 187.359375 137.335938 C 257.722656 137.335938 314.761719 169.050781 314.761719 208.160156 Z M 314.761719 208.160156 "/>
<path style=" stroke:none;fill-rule:nonzero;fill:rgb(98.039246%,66.668701%,20.779419%);fill-opacity:1;" d="M 314.761719 188.546875 C 314.761719 227.65625 257.722656 259.371094 187.359375 259.371094 C 116.996094 259.371094 59.957031 227.65625 59.957031 188.546875 C 59.957031 149.4375 116.996094 117.722656 187.359375 117.722656 C 257.722656 117.722656 314.761719 149.4375 314.761719 188.546875 Z M 314.761719 188.546875 "/>
<path style=" stroke:none;fill-rule:nonzero;fill:rgb(94.509888%,56.469727%,12.548828%);fill-opacity:1;" d="M 314.761719 168.933594 C 314.761719 208.042969 257.722656 239.757812 187.359375 239.757812 C 116.996094 239.757812 59.957031 208.050781 59.957031 168.933594 C 59.957031 129.816406 116.996094 98.109375 187.359375 98.109375 C 257.722656 98.109375 314.761719 129.824219 314.761719 168.933594 Z M 314.761719 168.933594 "/>
<path style=" stroke:none;fill-rule:nonzero;fill:rgb(98.039246%,66.668701%,20.779419%);fill-opacity:1;" d="M 314.761719 149.328125 C 314.761719 188.4375 257.722656 220.152344 187.359375 220.152344 C 116.996094 220.152344 59.957031 188.4375 59.957031 149.328125 C 59.957031 110.21875 116.996094 78.503906 187.359375 78.503906 C 257.722656 78.503906 314.761719 110.210938 314.761719 149.328125 Z M 314.761719 149.328125 "/>
<g clip-path="url(#clip3)" clip-rule="nonzero">
<path style=" stroke:none;fill-rule:nonzero;fill:rgb(94.509888%,56.469727%,12.548828%);fill-opacity:1;" d="M 314.761719 129.714844 C 314.761719 168.824219 257.722656 200.539062 187.359375 200.539062 C 116.996094 200.539062 59.957031 168.824219 59.957031 129.714844 C 59.957031 90.605469 116.996094 58.890625 187.359375 58.890625 C 257.722656 58.890625 314.761719 90.605469 314.761719 129.714844 Z M 314.761719 129.714844 "/>
</g>
<path style=" stroke:none;fill-rule:nonzero;fill:rgb(88.238525%,52.159119%,14.118958%);fill-opacity:1;" d="M 281.238281 236.433594 C 274.628906 240.429688 267.203125 244.007812 259.113281 247.085938 C 260.199219 252.160156 263.375 254.789062 267.03125 254.789062 C 272.5 254.789062 279.042969 248.898438 281.238281 236.433594 "/>
<path style=" stroke:none;fill-rule:nonzero;fill:rgb(89.7995%,57.249451%,18.03894%);fill-opacity:1;" d="M 282.011719 216.347656 C 275.050781 220.636719 267.160156 224.449219 258.503906 227.703125 C 258.621094 234.148438 258.722656 239.191406 258.722656 243.097656 C 258.722656 244.566406 258.859375 245.894531 259.113281 247.085938 C 267.203125 244.019531 274.628906 240.441406 281.238281 236.433594 C 281.71875 233.664062 281.992188 230.578125 281.992188 227.164062 L 282.011719 216.347656 "/>
<path style=" stroke:none;fill-rule:nonzero;fill:rgb(88.238525%,52.159119%,14.118958%);fill-opacity:1;" d="M 282.09375 196.679688 C 275.03125 201.039062 267.003906 204.917969 258.203125 208.195312 C 258.285156 215.789062 258.394531 222.246094 258.496094 227.703125 C 267.140625 224.460938 275.039062 220.644531 282 216.347656 C 282.027344 208.796875 282.054688 202.207031 282.09375 196.679688 "/>
<path style=" stroke:none;fill-rule:nonzero;fill:rgb(89.7995%,57.249451%,18.03894%);fill-opacity:1;" d="M 282.300781 176.855469 L 258.113281 188.546875 C 258.113281 195.820312 258.160156 202.351562 258.214844 208.195312 C 267.011719 204.917969 275.039062 201.039062 282.101562 196.679688 C 282.183594 183.921875 282.300781 176.855469 282.300781 176.855469 "/>
<path style=" stroke:none;fill-rule:nonzero;fill:rgb(81.959534%,47.839355%,15.689087%);fill-opacity:1;" d="M 163.160156 80.371094 C 127.023438 69.34375 111.789062 74.90625 114.164062 103.351562 C 114.773438 110.710938 104.671875 122.96875 94.5625 130.015625 C 71.058594 146.40625 81.160156 173.804688 121.519531 153.609375 C 141.730469 143.5 171.207031 144.183594 206.960938 155.136719 C 236.972656 164.335938 255.65625 175.050781 258.105469 188.539062 C 266.066406 185.84375 275.777344 181.625 282.300781 176.84375 C 279.835938 171.253906 268.824219 154.828125 251.371094 147.171875 C 218.355469 132.683594 250.242188 111.804688 274.949219 106.722656 C 297.308594 102.125 275.257812 85.269531 241.257812 85.886719 C 207.269531 86.507812 215.816406 96.453125 163.160156 80.371094 Z M 163.160156 80.371094 "/>
<path style=" stroke:none;fill-rule:nonzero;fill:rgb(98.039246%,66.668701%,20.779419%);fill-opacity:1;" d="M 224.871094 100.511719 C 224.871094 100.511719 225.84375 111.867188 222.003906 114.050781 L 194.285156 129.859375 C 190.453125 132.046875 184.253906 132.046875 180.425781 129.859375 L 152.703125 114.050781 C 148.875 111.867188 149.828125 100.292969 149.828125 100.292969 Z M 224.871094 100.511719 "/>
<path style=" stroke:none;fill-rule:nonzero;fill:rgb(100%,84.709167%,50.979614%);fill-opacity:1;" d="M 222.003906 96.34375 C 224.015625 97.488281 224.96875 99.011719 224.871094 100.511719 C 224.777344 101.871094 223.824219 103.207031 222.003906 104.246094 L 194.285156 120.054688 C 190.453125 122.238281 184.253906 122.238281 180.425781 120.054688 L 152.703125 104.246094 C 150.792969 103.152344 149.828125 101.722656 149.828125 100.292969 C 149.828125 98.863281 150.785156 97.433594 152.703125 96.34375 L 180.425781 80.535156 C 184.253906 78.347656 190.453125 78.347656 194.285156 80.535156 Z M 222.003906 96.34375 "/>
<path style=" stroke:none;fill-rule:nonzero;fill:rgb(62.348938%,44.709778%,25.489807%);fill-opacity:1;" d="M 187.5 126.800781 C 185.492188 126.800781 183.488281 126.828125 181.484375 126.882812 C 179.484375 126.9375 177.484375 127.019531 175.488281 127.128906 C 173.488281 127.238281 171.5 127.375 169.515625 127.539062 C 167.53125 127.703125 165.554688 127.894531 163.589844 128.109375 C 161.621094 128.328125 159.664062 128.574219 157.71875 128.84375 C 155.773438 129.117188 153.839844 129.414062 151.921875 129.738281 C 150 130.0625 148.097656 130.414062 146.207031 130.789062 C 144.320312 131.167969 142.449219 131.566406 140.597656 131.996094 C 138.742188 132.421875 136.910156 132.875 135.097656 133.351562 C 133.28125 133.832031 131.492188 134.332031 129.722656 134.859375 C 127.953125 135.386719 126.207031 135.9375 124.488281 136.511719 C 122.769531 137.085938 121.074219 137.683594 119.40625 138.304688 C 117.738281 138.925781 116.097656 139.566406 114.488281 140.234375 C 112.875 140.898438 111.296875 141.585938 109.746094 142.292969 C 108.195312 143.003906 106.675781 143.730469 105.1875 144.480469 C 103.703125 145.234375 102.25 146.003906 100.832031 146.792969 C 99.414062 147.582031 98.03125 148.390625 96.683594 149.21875 C 95.335938 150.046875 94.027344 150.894531 92.753906 151.757812 C 91.480469 152.621094 90.25 153.5 89.054688 154.398438 C 87.859375 155.292969 86.703125 156.207031 85.589844 157.136719 C 84.476562 158.066406 83.402344 159.007812 82.371094 159.96875 C 81.339844 160.925781 80.351562 161.898438 79.40625 162.882812 C 78.460938 163.867188 77.558594 164.867188 76.699219 165.875 C 75.84375 166.886719 75.03125 167.90625 74.261719 168.9375 C 73.496094 169.96875 72.773438 171.011719 72.097656 172.0625 C 71.421875 173.117188 70.792969 174.175781 70.210938 175.246094 C 69.628906 176.3125 69.09375 177.390625 68.605469 178.472656 C 68.121094 179.558594 67.679688 180.648438 67.289062 181.742188 C 66.898438 182.839844 66.554688 183.941406 66.261719 185.042969 C 65.964844 186.148438 65.71875 187.257812 65.523438 188.371094 C 65.328125 189.480469 65.179688 190.59375 65.082031 191.710938 C 64.984375 192.828125 64.933594 193.945312 64.933594 195.0625 C 64.933594 196.175781 64.984375 197.292969 65.082031 198.410156 C 65.179688 199.527344 65.328125 200.640625 65.523438 201.75 C 65.71875 202.863281 65.964844 203.972656 66.261719 205.078125 C 66.554688 206.179688 66.898438 207.28125 67.289062 208.378906 C 67.679688 209.472656 68.121094 210.5625 68.605469 211.648438 C 69.09375 212.730469 69.628906 213.808594 70.210938 214.875 C 70.792969 215.945312 71.421875 217.003906 72.097656 218.058594 C 72.773438 219.109375 73.496094 220.152344 74.261719 221.183594 C 75.03125 222.214844 75.84375 223.234375 76.699219 224.246094 C 77.558594 225.253906 78.460938 226.253906 79.40625 227.238281 C 80.351562 228.222656 81.339844 229.195312 82.371094 230.152344 C 83.402344 231.113281 84.476562 232.054688 85.589844 232.984375 C 86.703125 233.914062 87.859375 234.828125 89.054688 235.722656 C 90.25 236.621094 91.480469 237.5 92.753906 238.363281 C 94.027344 239.230469 95.335938 240.074219 96.683594 240.902344 C 98.03125 241.730469 99.414062 242.539062 100.832031 243.328125 C 102.25 244.117188 103.703125 244.886719 105.1875 245.640625 C 106.675781 246.390625 108.195312 247.117188 109.746094 247.828125 C 111.296875 248.535156 112.875 249.222656 114.488281 249.886719 C 116.097656 250.554688 117.738281 251.195312 119.40625 251.816406 C 121.074219 252.4375 122.769531 253.035156 124.488281 253.609375 C 126.207031 254.183594 127.953125 254.734375 129.722656 255.261719 C 131.492188 255.789062 133.28125 256.289062 135.097656 256.769531 C 136.910156 257.246094 138.742188 257.699219 140.597656 258.125 C 142.449219 258.554688 144.320312 258.953125 146.207031 259.332031 C 148.097656 259.707031 150 260.058594 151.921875 260.382812 C 153.839844 260.707031 155.773438 261.003906 157.71875 261.277344 C 159.664062 261.546875 161.621094 261.792969 163.589844 262.011719 C 165.554688 262.226562 167.53125 262.417969 169.515625 262.582031 C 171.5 262.746094 173.488281 262.882812 175.488281 262.992188 C 177.484375 263.101562 179.484375 263.183594 181.484375 263.238281 C 183.488281 263.292969 185.492188 263.320312 187.5 263.320312 C 189.507812 263.320312 191.511719 263.292969 193.515625 263.238281 C 195.515625 263.183594 197.515625 263.101562 199.511719 262.992188 C 201.511719 262.882812 203.5 262.746094 205.484375 262.582031 C 207.46875 262.417969 209.445312 262.226562 211.410156 262.011719 C 213.378906 261.792969 215.335938 261.546875 217.28125 261.277344 C 219.226562 261.003906 221.160156 260.707031 223.078125 260.382812 C 225 260.058594 226.902344 259.707031 228.792969 259.332031 C 230.679688 258.953125 232.550781 258.554688 234.402344 258.125 C 236.257812 257.699219 238.089844 257.246094 239.902344 256.769531 C 241.71875 256.289062 243.507812 255.789062 245.277344 255.261719 C 247.046875 254.734375 248.792969 254.183594 250.511719 253.609375 C 252.230469 253.035156 253.925781 252.4375 255.59375 251.816406 C 257.261719 251.195312 258.902344 250.554688 260.511719 249.886719 C 262.125 249.222656 263.703125 248.535156 265.253906 247.828125 C 266.804688 247.117188 268.324219 246.390625 269.8125 245.640625 C 271.296875 244.886719 272.75 244.117188 274.167969 243.328125 C 275.585938 242.539062 276.96875 241.730469 278.316406 240.902344 C 279.664062 240.074219 280.972656 239.230469 282.246094 238.363281 C 283.519531 237.5 284.75 236.621094 285.945312 235.722656 C 287.140625 234.828125 288.296875 233.914062 289.410156 232.984375 C 290.523438 232.054688 291.597656 231.113281 292.628906 230.152344 C 293.660156 229.195312 294.648438 228.222656 295.59375 227.238281 C 296.539062 226.253906 297.441406 225.253906 298.300781 224.246094 C 299.15625 223.234375 299.96875 222.214844 300.738281 221.183594 C 301.503906 220.152344 302.226562 219.109375 302.902344 218.058594 C 303.578125 217.003906 304.207031 215.945312 304.789062 214.875 C 305.371094 213.808594 305.90625 212.730469 306.394531 211.648438 C 306.878906 210.5625 307.320312 209.472656 307.710938 208.378906 C 308.101562 207.28125 308.445312 206.179688 308.738281 205.078125 C 309.035156 203.972656 309.28125 202.863281 309.476562 201.75 C 309.671875 200.640625 309.820312 199.527344 309.917969 198.410156 C 310.015625 197.292969 310.066406 196.175781 310.066406 195.0625 C 310.066406 193.945312 310.015625 192.828125 309.917969 191.710938 C 309.820312 190.59375 309.671875 189.480469 309.476562 188.371094 C 309.28125 187.257812 309.035156 186.148438 308.738281 185.042969 C 308.445312 183.941406 308.101562 182.839844 307.710938 181.742188 C 307.320312 180.648438 306.878906 179.558594 306.394531 178.472656 C 305.90625 177.390625 305.371094 176.3125 304.789062 175.246094 C 304.207031 174.175781 303.578125 173.117188 302.902344 172.0625 C 302.226562 171.011719 301.503906 169.96875 300.738281 168.9375 C 299.96875 167.90625 299.15625 166.886719 298.300781 165.875 C 297.441406 164.867188 296.539062 163.867188 295.59375 162.882812 C 294.648438 161.898438 293.660156 160.925781 292.628906 159.96875 C 291.597656 159.007812 290.523438 158.066406 289.410156 157.136719 C 288.296875 156.207031 287.140625 155.292969 285.945312 154.398438 C 284.75 153.5 283.519531 152.621094 282.246094 151.757812 C 280.972656 150.894531 279.664062 150.046875 278.316406 149.21875 C 276.96875 148.390625 275.585938 147.582031 274.167969 146.792969 C 272.75 146.003906 271.296875 145.234375 269.8125 144.480469 C 268.324219 143.730469 266.804688 143.003906 265.253906 142.292969 C 263.703125 141.585938 262.125 140.898438 260.511719 140.234375 C 258.902344 139.566406 257.261719 138.925781 255.59375 138.304688 C 253.925781 137.683594 252.230469 137.085938 250.511719 136.511719 C 248.792969 135.9375 247.046875 135.386719 245.277344 134.859375 C 243.507812 134.332031 241.71875 133.832031 239.902344 133.351562 C 238.089844 132.875 236.257812 132.421875 234.402344 131.996094 C 232.550781 131.566406 230.679688 131.167969 228.792969 130.789062 C 226.902344 130.414062 225 130.0625 223.078125 129.738281 C 221.160156 129.414062 219.226562 129.117188 217.28125 128.84375 C 215.335938 128.574219 213.378906 128.328125 211.410156 128.109375 C 209.445312 127.894531 207.46875 127.703125 205.484375 127.539062 C 203.5 127.375 201.511719 127.238281 199.511719 127.128906 C 197.515625 127.019531 195.515625 126.9375 193.515625 126.882812 C 191.511719 126.828125 189.507812 126.800781 187.5 126.800781 Z M 187.5 126.800781 "/>
<path style=" stroke:none;fill-rule:nonzero;fill:rgb(90.979004%,54.508972%,14.118958%);fill-opacity:1;" d="M 187.5 105.921875 C 185.492188 105.921875 183.488281 105.949219 181.484375 106.003906 C 179.484375 106.058594 177.484375 106.140625 175.488281 106.25 C 173.488281 106.359375 171.5 106.496094 169.515625 106.660156 C 167.53125 106.824219 165.554688 107.015625 163.589844 107.234375 C 161.621094 107.449219 159.664062 107.695312 157.71875 107.96875 C 155.773438 108.238281 153.839844 108.535156 151.921875 108.859375 C 150 109.183594 148.097656 109.535156 146.207031 109.910156 C 144.320312 110.289062 142.449219 110.691406 140.597656 111.117188 C 138.742188 111.542969 136.910156 111.996094 135.097656 112.476562 C 133.28125 112.953125 131.492188 113.453125 129.722656 113.980469 C 127.953125 114.507812 126.207031 115.058594 124.488281 115.632812 C 122.769531 116.207031 121.074219 116.804688 119.40625 117.425781 C 117.738281 118.046875 116.097656 118.6875 114.488281 119.355469 C 112.875 120.019531 111.296875 120.707031 109.746094 121.414062 C 108.195312 122.125 106.675781 122.855469 105.1875 123.605469 C 103.703125 124.355469 102.25 125.125 100.832031 125.914062 C 99.414062 126.703125 98.03125 127.511719 96.683594 128.339844 C 95.335938 129.167969 94.027344 130.015625 92.753906 130.878906 C 91.480469 131.742188 90.25 132.621094 89.054688 133.519531 C 87.859375 134.417969 86.703125 135.328125 85.589844 136.257812 C 84.476562 137.1875 83.402344 138.132812 82.371094 139.089844 C 81.339844 140.046875 80.351562 141.019531 79.40625 142.003906 C 78.460938 142.988281 77.558594 143.988281 76.699219 144.996094 C 75.84375 146.007812 75.03125 147.027344 74.261719 148.058594 C 73.496094 149.09375 72.773438 150.132812 72.097656 151.1875 C 71.421875 152.238281 70.792969 153.296875 70.210938 154.367188 C 69.628906 155.4375 69.09375 156.511719 68.605469 157.597656 C 68.121094 158.679688 67.679688 159.769531 67.289062 160.867188 C 66.898438 161.960938 66.554688 163.0625 66.261719 164.167969 C 65.964844 165.269531 65.71875 166.378906 65.523438 167.492188 C 65.328125 168.601562 65.179688 169.71875 65.082031 170.832031 C 64.984375 171.949219 64.933594 173.066406 64.933594 174.183594 C 64.933594 175.300781 64.984375 176.414062 65.082031 177.53125 C 65.179688 178.648438 65.328125 179.761719 65.523438 180.875 C 65.71875 181.984375 65.964844 183.09375 66.261719 184.199219 C 66.554688 185.304688 66.898438 186.402344 67.289062 187.5 C 67.679688 188.59375 68.121094 189.683594 68.605469 190.769531 C 69.09375 191.851562 69.628906 192.929688 70.210938 193.996094 C 70.792969 195.066406 71.421875 196.128906 72.097656 197.179688 C 72.773438 198.230469 73.496094 199.273438 74.261719 200.304688 C 75.03125 201.335938 75.84375 202.359375 76.699219 203.367188 C 77.558594 204.378906 78.460938 205.375 79.40625 206.359375 C 80.351562 207.34375 81.339844 208.316406 82.371094 209.277344 C 83.402344 210.234375 84.476562 211.175781 85.589844 212.105469 C 86.703125 213.035156 87.859375 213.949219 89.054688 214.84375 C 90.25 215.742188 91.480469 216.625 92.753906 217.488281 C 94.027344 218.351562 95.335938 219.195312 96.683594 220.023438 C 98.03125 220.851562 99.414062 221.660156 100.832031 222.449219 C 102.25 223.238281 103.703125 224.011719 105.1875 224.761719 C 106.675781 225.511719 108.195312 226.238281 109.746094 226.949219 C 111.296875 227.65625 112.875 228.34375 114.488281 229.011719 C 116.097656 229.675781 117.738281 230.320312 119.40625 230.9375 C 121.074219 231.558594 122.769531 232.15625 124.488281 232.730469 C 126.207031 233.304688 127.953125 233.855469 129.722656 234.382812 C 131.492188 234.910156 133.28125 235.410156 135.097656 235.890625 C 136.910156 236.367188 138.742188 236.820312 140.597656 237.246094 C 142.449219 237.675781 144.320312 238.078125 146.207031 238.453125 C 148.097656 238.828125 150 239.179688 151.921875 239.503906 C 153.839844 239.828125 155.773438 240.125 157.71875 240.398438 C 159.664062 240.667969 161.621094 240.914062 163.589844 241.132812 C 165.554688 241.351562 167.53125 241.539062 169.515625 241.703125 C 171.5 241.867188 173.488281 242.003906 175.488281 242.113281 C 177.484375 242.222656 179.484375 242.304688 181.484375 242.359375 C 183.488281 242.417969 185.492188 242.445312 187.5 242.445312 C 189.507812 242.445312 191.511719 242.417969 193.515625 242.359375 C 195.515625 242.304688 197.515625 242.222656 199.511719 242.113281 C 201.511719 242.003906 203.5 241.867188 205.484375 241.703125 C 207.46875 241.539062 209.445312 241.351562 211.410156 241.132812 C 213.378906 240.914062 215.335938 240.667969 217.28125 240.398438 C 219.226562 240.125 221.160156 239.828125 223.078125 239.503906 C 225 239.179688 226.902344 238.828125 228.792969 238.453125 C 230.679688 238.078125 232.550781 237.675781 234.402344 237.246094 C 236.257812 236.820312 238.089844 236.367188 239.902344 235.890625 C 241.71875 235.410156 243.507812 234.910156 245.277344 234.382812 C 247.046875 233.855469 248.792969 233.304688 250.511719 232.730469 C 252.230469 232.15625 253.925781 231.558594 255.59375 230.9375 C 257.261719 230.320312 258.902344 229.675781 260.511719 229.011719 C 262.125 228.34375 263.703125 227.65625 265.253906 226.949219 C 266.804688 226.238281 268.324219 225.511719 269.8125 224.761719 C 271.296875 224.011719 272.75 223.238281 274.167969 222.449219 C 275.585938 221.660156 276.96875 220.851562 278.316406 220.023438 C 279.664062 219.195312 280.972656 218.351562 282.246094 217.488281 C 283.519531 216.625 284.75 215.742188 285.945312 214.84375 C 287.140625 213.949219 288.296875 213.035156 289.410156 212.105469 C 290.523438 211.175781 291.597656 210.234375 292.628906 209.277344 C 293.660156 208.316406 294.648438 207.34375 295.59375 206.359375 C 296.539062 205.375 297.441406 204.378906 298.300781 203.367188 C 299.15625 202.359375 299.96875 201.335938 300.738281 200.304688 C 301.503906 199.273438 302.226562 198.230469 302.902344 197.179688 C 303.578125 196.128906 304.207031 195.066406 304.789062 193.996094 C 305.371094 192.929688 305.90625 191.851562 306.394531 190.769531 C 306.878906 189.683594 307.320312 188.59375 307.710938 187.5 C 308.101562 186.402344 308.445312 185.304688 308.738281 184.199219 C 309.035156 183.09375 309.28125 181.984375 309.476562 180.875 C 309.671875 179.761719 309.820312 178.648438 309.917969 177.53125 C 310.015625 176.414062 310.066406 175.300781 310.066406 174.183594 C 310.066406 173.066406 310.015625 171.949219 309.917969 170.832031 C 309.820312 169.71875 309.671875 168.601562 309.476562 167.492188 C 309.28125 166.378906 309.035156 165.269531 308.738281 164.167969 C 308.445312 163.0625 308.101562 161.960938 307.710938 160.867188 C 307.320312 159.769531 306.878906 158.679688 306.394531 157.597656 C 305.90625 156.511719 305.371094 155.4375 304.789062 154.367188 C 304.207031 153.296875 303.578125 152.238281 302.902344 151.1875 C 302.226562 150.132812 301.503906 149.09375 300.738281 148.058594 C 299.96875 147.027344 299.15625 146.007812 298.300781 144.996094 C 297.441406 143.988281 296.539062 142.988281 295.59375 142.003906 C 294.648438 141.019531 293.660156 140.046875 292.628906 139.089844 C 291.597656 138.132812 290.523438 137.1875 289.410156 136.257812 C 288.296875 135.328125 287.140625 134.417969 285.945312 133.519531 C 284.75 132.621094 283.519531 131.742188 282.246094 130.878906 C 280.972656 130.015625 279.664062 129.167969 278.316406 128.339844 C 276.96875 127.511719 275.585938 126.703125 274.167969 125.914062 C 272.75 125.125 271.296875 124.355469 269.8125 123.605469 C 268.324219 122.855469 266.804688 122.125 265.253906 121.414062 C 263.703125 120.707031 262.125 120.019531 260.511719 119.355469 C 258.902344 118.6875 257.261719 118.046875 255.59375 117.425781 C 253.925781 116.804688 252.230469 116.207031 250.511719 115.632812 C 248.792969 115.058594 247.046875 114.507812 245.277344 113.980469 C 243.507812 113.453125 241.71875 112.953125 239.902344 112.476562 C 238.089844 111.996094 236.257812 111.542969 234.402344 111.117188 C 232.550781 110.691406 230.679688 110.289062 228.792969 109.910156 C 226.902344 109.535156 225 109.183594 223.078125 108.859375 C 221.160156 108.535156 219.226562 108.238281 217.28125 107.96875 C 215.335938 107.695312 213.378906 107.449219 211.410156 107.234375 C 209.445312 107.015625 207.46875 106.824219 205.484375 106.660156 C 203.5 106.496094 201.511719 106.359375 199.511719 106.25 C 197.515625 106.140625 195.515625 106.058594 193.515625 106.003906 C 191.511719 105.949219 189.507812 105.921875 187.5 105.921875 Z M 187.5 105.921875 "/>
<path style=" stroke:none;fill-rule:nonzero;fill:rgb(62.348938%,44.709778%,25.489807%);fill-opacity:1;" d="M 187.5 84.457031 C 185.492188 84.457031 183.488281 84.484375 181.484375 84.539062 C 179.484375 84.59375 177.484375 84.675781 175.488281 84.785156 C 173.488281 84.894531 171.5 85.03125 169.515625 85.195312 C 167.53125 85.359375 165.554688 85.550781 163.589844 85.769531 C 161.621094 85.984375 159.664062 86.230469 157.71875 86.5 C 155.773438 86.773438 153.839844 87.070312 151.921875 87.394531 C 150 87.71875 148.097656 88.070312 146.207031 88.445312 C 144.320312 88.824219 142.449219 89.226562 140.597656 89.652344 C 138.742188 90.078125 136.910156 90.53125 135.097656 91.011719 C 133.28125 91.488281 131.492188 91.988281 129.722656 92.515625 C 127.953125 93.042969 126.207031 93.59375 124.488281 94.167969 C 122.769531 94.742188 121.074219 95.339844 119.40625 95.960938 C 117.738281 96.582031 116.097656 97.222656 114.488281 97.890625 C 112.875 98.554688 111.296875 99.242188 109.746094 99.949219 C 108.195312 100.660156 106.675781 101.390625 105.1875 102.140625 C 103.703125 102.890625 102.25 103.660156 100.832031 104.449219 C 99.414062 105.238281 98.03125 106.046875 96.683594 106.875 C 95.335938 107.703125 94.027344 108.550781 92.753906 109.414062 C 91.480469 110.277344 90.25 111.15625 89.054688 112.054688 C 87.859375 112.953125 86.703125 113.863281 85.589844 114.792969 C 84.476562 115.722656 83.402344 116.664062 82.371094 117.625 C 81.339844 118.582031 80.351562 119.554688 79.40625 120.539062 C 78.460938 121.523438 77.558594 122.523438 76.699219 123.53125 C 75.84375 124.542969 75.03125 125.5625 74.261719 126.59375 C 73.496094 127.625 72.773438 128.667969 72.097656 129.722656 C 71.421875 130.773438 70.792969 131.832031 70.210938 132.902344 C 69.628906 133.972656 69.09375 135.046875 68.605469 136.132812 C 68.121094 137.214844 67.679688 138.304688 67.289062 139.398438 C 66.898438 140.496094 66.554688 141.597656 66.261719 142.703125 C 65.964844 143.804688 65.71875 144.914062 65.523438 146.027344 C 65.328125 147.136719 65.179688 148.253906 65.082031 149.367188 C 64.984375 150.484375 64.933594 151.601562 64.933594 152.71875 C 64.933594 153.835938 64.984375 154.949219 65.082031 156.066406 C 65.179688 157.183594 65.328125 158.296875 65.523438 159.40625 C 65.71875 160.519531 65.964844 161.628906 66.261719 162.734375 C 66.554688 163.839844 66.898438 164.9375 67.289062 166.035156 C 67.679688 167.128906 68.121094 168.21875 68.605469 169.304688 C 69.09375 170.386719 69.628906 171.464844 70.210938 172.53125 C 70.792969 173.601562 71.421875 174.660156 72.097656 175.714844 C 72.773438 176.765625 73.496094 177.808594 74.261719 178.839844 C 75.03125 179.871094 75.84375 180.894531 76.699219 181.902344 C 77.558594 182.914062 78.460938 183.910156 79.40625 184.894531 C 80.351562 185.878906 81.339844 186.851562 82.371094 187.808594 C 83.402344 188.769531 84.476562 189.710938 85.589844 190.640625 C 86.703125 191.570312 87.859375 192.484375 89.054688 193.378906 C 90.25 194.277344 91.480469 195.15625 92.753906 196.023438 C 94.027344 196.886719 95.335938 197.730469 96.683594 198.558594 C 98.03125 199.386719 99.414062 200.195312 100.832031 200.984375 C 102.25 201.773438 103.703125 202.546875 105.1875 203.296875 C 106.675781 204.046875 108.195312 204.773438 109.746094 205.484375 C 111.296875 206.191406 112.875 206.878906 114.488281 207.546875 C 116.097656 208.210938 117.738281 208.855469 119.40625 209.472656 C 121.074219 210.09375 122.769531 210.691406 124.488281 211.265625 C 126.207031 211.839844 127.953125 212.390625 129.722656 212.917969 C 131.492188 213.445312 133.28125 213.945312 135.097656 214.425781 C 136.910156 214.902344 138.742188 215.355469 140.597656 215.78125 C 142.449219 216.210938 144.320312 216.613281 146.207031 216.988281 C 148.097656 217.363281 150 217.714844 151.921875 218.039062 C 153.839844 218.363281 155.773438 218.660156 157.71875 218.933594 C 159.664062 219.203125 161.621094 219.449219 163.589844 219.667969 C 165.554688 219.882812 167.53125 220.074219 169.515625 220.238281 C 171.5 220.402344 173.488281 220.539062 175.488281 220.648438 C 177.484375 220.757812 179.484375 220.839844 181.484375 220.894531 C 183.488281 220.949219 185.492188 220.976562 187.5 220.976562 C 189.507812 220.976562 191.511719 220.949219 193.515625 220.894531 C 195.515625 220.839844 197.515625 220.757812 199.511719 220.648438 C 201.511719 220.539062 203.5 220.402344 205.484375 220.238281 C 207.46875 220.074219 209.445312 219.882812 211.410156 219.667969 C 213.378906 219.449219 215.335938 219.203125 217.28125 218.933594 C 219.226562 218.660156 221.160156 218.363281 223.078125 218.039062 C 225 217.714844 226.902344 217.363281 228.792969 216.988281 C 230.679688 216.613281 232.550781 216.210938 234.402344 215.78125 C 236.257812 215.355469 238.089844 214.902344 239.902344 214.425781 C 241.71875 213.945312 243.507812 213.445312 245.277344 212.917969 C 247.046875 212.390625 248.792969 211.839844 250.511719 211.265625 C 252.230469 210.691406 253.925781 210.09375 255.59375 209.472656 C 257.261719 208.855469 258.902344 208.210938 260.511719 207.546875 C 262.125 206.878906 263.703125 206.191406 265.253906 205.484375 C 266.804688 204.773438 268.324219 204.046875 269.8125 203.296875 C 271.296875 202.546875 272.75 201.773438 274.167969 200.984375 C 275.585938 200.195312 276.96875 199.386719 278.316406 198.558594 C 279.664062 197.730469 280.972656 196.886719 282.246094 196.023438 C 283.519531 195.15625 284.75 194.277344 285.945312 193.378906 C 287.140625 192.484375 288.296875 191.570312 289.410156 190.640625 C 290.523438 189.710938 291.597656 188.769531 292.628906 187.808594 C 293.660156 186.851562 294.648438 185.878906 295.59375 184.894531 C 296.539062 183.910156 297.441406 182.914062 298.300781 181.902344 C 299.15625 180.894531 299.96875 179.871094 300.738281 178.839844 C 301.503906 177.808594 302.226562 176.765625 302.902344 175.714844 C 303.578125 174.660156 304.207031 173.601562 304.789062 172.53125 C 305.371094 171.464844 305.90625 170.386719 306.394531 169.304688 C 306.878906 168.21875 307.320312 167.128906 307.710938 166.035156 C 308.101562 164.9375 308.445312 163.839844 308.738281 162.734375 C 309.035156 161.628906 309.28125 160.519531 309.476562 159.40625 C 309.671875 158.296875 309.820312 157.183594 309.917969 156.066406 C 310.015625 154.949219 310.066406 153.835938 310.066406 152.71875 C 310.066406 151.601562 310.015625 150.484375 309.917969 149.367188 C 309.820312 148.253906 309.671875 147.136719 309.476562 146.027344 C 309.28125 144.914062 309.035156 143.804688 308.738281 142.703125 C 308.445312 141.597656 308.101562 140.496094 307.710938 139.398438 C 307.320312 138.304688 306.878906 137.214844 306.394531 136.132812 C 305.90625 135.046875 305.371094 133.972656 304.789062 132.902344 C 304.207031 131.832031 303.578125 130.773438 302.902344 129.722656 C 302.226562 128.667969 301.503906 127.625 300.738281 126.59375 C 299.96875 125.5625 299.15625 124.542969 298.300781 123.53125 C 297.441406 122.523438 296.539062 121.523438 295.59375 120.539062 C 294.648438 119.554688 293.660156 118.582031 292.628906 117.625 C 291.597656 116.664062 290.523438 115.722656 289.410156 114.792969 C 288.296875 113.863281 287.140625 112.953125 285.945312 112.054688 C 284.75 111.15625 283.519531 110.277344 282.246094 109.414062 C 280.972656 108.550781 279.664062 107.703125 278.316406 106.875 C 276.96875 106.046875 275.585938 105.238281 274.167969 104.449219 C 272.75 103.660156 271.296875 102.890625 269.8125 102.140625 C 268.324219 101.390625 266.804688 100.660156 265.253906 99.949219 C 263.703125 99.242188 262.125 98.554688 260.511719 97.890625 C 258.902344 97.222656 257.261719 96.582031 255.59375 95.960938 C 253.925781 95.339844 252.230469 94.742188 250.511719 94.167969 C 248.792969 93.59375 247.046875 93.042969 245.277344 92.515625 C 243.507812 91.988281 241.71875 91.488281 239.902344 91.011719 C 238.089844 90.53125 236.257812 90.078125 234.402344 89.652344 C 232.550781 89.226562 230.679688 88.824219 228.792969 88.445312 C 226.902344 88.070312 225 87.71875 223.078125 87.394531 C 221.160156 87.070312 219.226562 86.773438 217.28125 86.5 C 215.335938 86.230469 213.378906 85.984375 211.410156 85.769531 C 209.445312 85.550781 207.46875 85.359375 205.484375 85.195312 C 203.5 85.03125 201.511719 84.894531 199.511719 84.785156 C 197.515625 84.675781 195.515625 84.59375 193.515625 84.539062 C 191.511719 84.484375 189.507812 84.457031 187.5 84.457031 Z M 187.5 84.457031 "/>
<path style=" stroke:none;fill-rule:nonzero;fill:rgb(90.979004%,54.508972%,14.118958%);fill-opacity:1;" d="M 187.5 58.539062 C 185.492188 58.539062 183.488281 58.566406 181.484375 58.621094 C 179.484375 58.675781 177.484375 58.757812 175.488281 58.867188 C 173.488281 58.976562 171.5 59.113281 169.515625 59.277344 C 167.53125 59.441406 165.554688 59.632812 163.589844 59.851562 C 161.621094 60.066406 159.664062 60.3125 157.71875 60.585938 C 155.773438 60.855469 153.839844 61.152344 151.921875 61.476562 C 150 61.800781 148.097656 62.152344 146.207031 62.527344 C 144.320312 62.90625 142.449219 63.308594 140.597656 63.734375 C 138.742188 64.160156 136.910156 64.613281 135.097656 65.09375 C 133.28125 65.570312 131.492188 66.070312 129.722656 66.597656 C 127.953125 67.125 126.207031 67.675781 124.488281 68.25 C 122.769531 68.824219 121.074219 69.421875 119.40625 70.042969 C 117.738281 70.664062 116.097656 71.304688 114.488281 71.972656 C 112.875 72.636719 111.296875 73.324219 109.746094 74.03125 C 108.195312 74.742188 106.675781 75.472656 105.1875 76.222656 C 103.703125 76.972656 102.25 77.742188 100.832031 78.53125 C 99.414062 79.320312 98.03125 80.128906 96.683594 80.957031 C 95.335938 81.785156 94.027344 82.632812 92.753906 83.496094 C 91.480469 84.359375 90.25 85.238281 89.054688 86.136719 C 87.859375 87.035156 86.703125 87.945312 85.589844 88.875 C 84.476562 89.804688 83.402344 90.746094 82.371094 91.707031 C 81.339844 92.664062 80.351562 93.636719 79.40625 94.621094 C 78.460938 95.605469 77.558594 96.605469 76.699219 97.613281 C 75.84375 98.625 75.03125 99.644531 74.261719 100.675781 C 73.496094 101.710938 72.773438 102.75 72.097656 103.804688 C 71.421875 104.855469 70.792969 105.914062 70.210938 106.984375 C 69.628906 108.054688 69.09375 109.128906 68.605469 110.214844 C 68.121094 111.296875 67.679688 112.386719 67.289062 113.480469 C 66.898438 114.578125 66.554688 115.679688 66.261719 116.785156 C 65.964844 117.886719 65.71875 118.996094 65.523438 120.109375 C 65.328125 121.21875 65.179688 122.335938 65.082031 123.449219 C 64.984375 124.566406 64.933594 125.683594 64.933594 126.800781 C 64.933594 127.917969 64.984375 129.03125 65.082031 130.148438 C 65.179688 131.265625 65.328125 132.378906 65.523438 133.488281 C 65.71875 134.601562 65.964844 135.710938 66.261719 136.816406 C 66.554688 137.921875 66.898438 139.019531 67.289062 140.117188 C 67.679688 141.210938 68.121094 142.300781 68.605469 143.386719 C 69.09375 144.46875 69.628906 145.546875 70.210938 146.613281 C 70.792969 147.683594 71.421875 148.742188 72.097656 149.796875 C 72.773438 150.847656 73.496094 151.890625 74.261719 152.921875 C 75.03125 153.953125 75.84375 154.976562 76.699219 155.984375 C 77.558594 156.996094 78.460938 157.992188 79.40625 158.976562 C 80.351562 159.960938 81.339844 160.933594 82.371094 161.894531 C 83.402344 162.851562 84.476562 163.792969 85.589844 164.722656 C 86.703125 165.652344 87.859375 166.566406 89.054688 167.460938 C 90.25 168.359375 91.480469 169.242188 92.753906 170.105469 C 94.027344 170.96875 95.335938 171.8125 96.683594 172.640625 C 98.03125 173.46875 99.414062 174.277344 100.832031 175.066406 C 102.25 175.855469 103.703125 176.628906 105.1875 177.378906 C 106.675781 178.128906 108.195312 178.855469 109.746094 179.566406 C 111.296875 180.273438 112.875 180.960938 114.488281 181.628906 C 116.097656 182.292969 117.738281 182.9375 119.40625 183.554688 C 121.074219 184.175781 122.769531 184.773438 124.488281 185.347656 C 126.207031 185.921875 127.953125 186.472656 129.722656 187 C 131.492188 187.527344 133.28125 188.027344 135.097656 188.507812 C 136.910156 188.984375 138.742188 189.4375 140.597656 189.863281 C 142.449219 190.292969 144.320312 190.695312 146.207031 191.070312 C 148.097656 191.445312 150 191.796875 151.921875 192.121094 C 153.839844 192.445312 155.773438 192.742188 157.71875 193.015625 C 159.664062 193.285156 161.621094 193.53125 163.589844 193.75 C 165.554688 193.96875 167.53125 194.15625 169.515625 194.320312 C 171.5 194.484375 173.488281 194.621094 175.488281 194.730469 C 177.484375 194.839844 179.484375 194.921875 181.484375 194.976562 C 183.488281 195.03125 185.492188 195.0625 187.5 195.0625 C 189.507812 195.0625 191.511719 195.03125 193.515625 194.976562 C 195.515625 194.921875 197.515625 194.839844 199.511719 194.730469 C 201.511719 194.621094 203.5 194.484375 205.484375 194.320312 C 207.46875 194.15625 209.445312 193.96875 211.410156 193.75 C 213.378906 193.53125 215.335938 193.285156 217.28125 193.015625 C 219.226562 192.742188 221.160156 192.445312 223.078125 192.121094 C 225 191.796875 226.902344 191.445312 228.792969 191.070312 C 230.679688 190.695312 232.550781 190.292969 234.402344 189.863281 C 236.257812 189.4375 238.089844 188.984375 239.902344 188.507812 C 241.71875 188.027344 243.507812 187.527344 245.277344 187 C 247.046875 186.472656 248.792969 185.921875 250.511719 185.347656 C 252.230469 184.773438 253.925781 184.175781 255.59375 183.554688 C 257.261719 182.9375 258.902344 182.292969 260.511719 181.628906 C 262.125 180.960938 263.703125 180.273438 265.253906 179.566406 C 266.804688 178.855469 268.324219 178.128906 269.8125 177.378906 C 271.296875 176.628906 272.75 175.855469 274.167969 175.066406 C 275.585938 174.277344 276.96875 173.46875 278.316406 172.640625 C 279.664062 171.8125 280.972656 170.96875 282.246094 170.105469 C 283.519531 169.242188 284.75 168.359375 285.945312 167.460938 C 287.140625 166.566406 288.296875 165.652344 289.410156 164.722656 C 290.523438 163.792969 291.597656 162.851562 292.628906 161.894531 C 293.660156 160.933594 294.648438 159.960938 295.59375 158.976562 C 296.539062 157.992188 297.441406 156.996094 298.300781 155.984375 C 299.15625 154.976562 299.96875 153.953125 300.738281 152.921875 C 301.503906 151.890625 302.226562 150.847656 302.902344 149.796875 C 303.578125 148.742188 304.207031 147.683594 304.789062 146.613281 C 305.371094 145.546875 305.90625 144.46875 306.394531 143.386719 C 306.878906 142.300781 307.320312 141.210938 307.710938 140.117188 C 308.101562 139.019531 308.445312 137.921875 308.738281 136.816406 C 309.035156 135.710938 309.28125 134.601562 309.476562 133.488281 C 309.671875 132.378906 309.820312 131.265625 309.917969 130.148438 C 310.015625 129.03125 310.066406 127.917969 310.066406 126.800781 C 310.066406 125.683594 310.015625 124.566406 309.917969 123.449219 C 309.820312 122.335938 309.671875 121.21875 309.476562 120.109375 C 309.28125 118.996094 309.035156 117.886719 308.738281 116.785156 C 308.445312 115.679688 308.101562 114.578125 307.710938 113.480469 C 307.320312 112.386719 306.878906 111.296875 306.394531 110.214844 C 305.90625 109.128906 305.371094 108.054688 304.789062 106.984375 C 304.207031 105.914062 303.578125 104.855469 302.902344 103.804688 C 302.226562 102.75 301.503906 101.710938 300.738281 100.675781 C 299.96875 99.644531 299.15625 98.625 298.300781 97.613281 C 297.441406 96.605469 296.539062 95.605469 295.59375 94.621094 C 294.648438 93.636719 293.660156 92.664062 292.628906 91.707031 C 291.597656 90.746094 290.523438 89.804688 289.410156 88.875 C 288.296875 87.945312 287.140625 87.035156 285.945312 86.136719 C 284.75 85.238281 283.519531 84.359375 282.246094 83.496094 C 280.972656 82.632812 279.664062 81.785156 278.316406 80.957031 C 276.96875 80.128906 275.585938 79.320312 274.167969 78.53125 C 272.75 77.742188 271.296875 76.972656 269.8125 76.222656 C 268.324219 75.472656 266.804688 74.742188 265.253906 74.03125 C 263.703125 73.324219 262.125 72.636719 260.511719 71.972656 C 258.902344 71.304688 257.261719 70.664062 255.59375 70.042969 C 253.925781 69.421875 252.230469 68.824219 250.511719 68.25 C 248.792969 67.675781 247.046875 67.125 245.277344 66.597656 C 243.507812 66.070312 241.71875 65.570312 239.902344 65.09375 C 238.089844 64.613281 236.257812 64.160156 234.402344 63.734375 C 232.550781 63.308594 230.679688 62.90625 228.792969 62.527344 C 226.902344 62.152344 225 61.800781 223.078125 61.476562 C 221.160156 61.152344 219.226562 60.855469 217.28125 60.585938 C 215.335938 60.3125 213.378906 60.066406 211.410156 59.851562 C 209.445312 59.632812 207.46875 59.441406 205.484375 59.277344 C 203.5 59.113281 201.511719 58.976562 199.511719 58.867188 C 197.515625 58.757812 195.515625 58.675781 193.515625 58.621094 C 191.511719 58.566406 189.507812 58.539062 187.5 58.539062 Z M 187.5 58.539062 "/>
<g clip-path="url(#clip4)" clip-rule="nonzero">
<path style=" stroke:none;fill-rule:nonzero;fill:rgb(32.939148%,32.939148%,32.939148%);fill-opacity:1;" d="M 266.355469 87.953125 C 265.875 90.953125 264.914062 93.945312 262.15625 92.539062 C 254.660156 88.707031 255.882812 87.492188 235.441406 78.488281 C 217.894531 70.757812 210.277344 74.214844 212.542969 65.328125 C 216.476562 49.878906 221.121094 43.449219 230.621094 30.539062 C 234.886719 24.738281 241.984375 18.867188 249.210938 18.878906 C 268.832031 18.910156 269.464844 68.652344 266.355469 87.953125 Z M 136.160156 76.820312 C 149.714844 71.832031 155.472656 70.539062 152.703125 63.515625 C 151.660156 60.863281 148.738281 56.425781 147.09375 52.421875 C 143.496094 43.636719 137.984375 36.003906 132.917969 28.097656 C 130.4375 24.222656 127.082031 21.195312 123.320312 18.644531 C 116.335938 13.921875 111.527344 18.796875 107.589844 26.347656 C 99.335938 42.167969 97.617188 57.601562 97.4375 76.371094 C 97.210938 99.726562 103.039062 88.84375 136.160156 76.820312 Z M 186.789062 161.414062 C 186.648438 179.835938 187.289062 180.097656 184.375 183.925781 C 178.507812 191.621094 167.875 192.898438 163.117188 188.355469 C 161.316406 186.640625 159.117188 183.847656 157.542969 185.898438 C 156.804688 186.859375 157.15625 187.753906 157.824219 188.550781 C 161.796875 193.292969 166.691406 195.6875 173.007812 194.566406 C 187.160156 192.058594 186.609375 182.699219 189.285156 187.050781 C 192.785156 192.734375 197.234375 195.945312 209.765625 195.160156 C 214.832031 194.839844 218.550781 191.816406 221.75 188.136719 C 223.554688 186.058594 221.199219 182.859375 218.398438 186.058594 C 213.046875 192.164062 208.574219 191.597656 202.515625 191.257812 C 195.753906 190.882812 190.734375 185.574219 190.714844 178.773438 C 190.554688 124.867188 186.203125 164.195312 202.707031 126.792969 C 207.941406 114.925781 182.445312 116.367188 175.914062 119.53125 C 172.988281 120.953125 171.832031 123.265625 172.707031 126.441406 C 173.222656 128.3125 173.753906 130.300781 174.804688 131.886719 C 175.105469 132.351562 183.792969 145.152344 185.082031 145.570312 C 186.84375 146.148438 186.90625 161.410156 186.789062 161.414062 Z M 66.160156 137.753906 C 64.296875 138.824219 64.847656 140.945312 67.429688 141.253906 C 68.074219 141.332031 81.109375 137.03125 93.675781 136.839844 C 148.472656 136 155.71875 149.859375 157.980469 145.644531 C 162.195312 137.769531 87.144531 125.648438 66.160156 137.753906 Z M 307.699219 138.992188 C 268.476562 122.476562 228.988281 137.871094 220.4375 140.542969 C 218.816406 141.050781 218.183594 142.074219 218.453125 143.15625 C 219.082031 145.644531 223.136719 144.015625 226.734375 142.742188 C 258.152344 131.632812 291.667969 135.261719 306.355469 142.28125 C 307.886719 143.011719 309.78125 142.140625 310.019531 141.230469 C 310.367188 139.859375 308.476562 139.324219 307.699219 138.992188 Z M 270.730469 152.714844 C 262.199219 150.246094 243.230469 149.378906 228.261719 152.761719 C 226.414062 153.179688 225.707031 154.21875 225.9375 155.507812 C 226.824219 160.433594 231.953125 150.644531 270.195312 156.207031 C 273.027344 156.242188 273.207031 153.429688 270.730469 152.714844 Z M 150.367188 155.976562 C 151.753906 150.402344 110.40625 148.953125 106.46875 153.195312 C 105.300781 154.449219 105.269531 156.097656 107.273438 156.554688 C 107.515625 156.613281 110.96875 156.078125 123.386719 154.28125 C 144.371094 154.570312 149.503906 159.445312 150.367188 155.976562 Z M 150.441406 166.414062 C 151.234375 160.703125 122.082031 165.65625 119.195312 169.8125 C 118.09375 171.398438 119.289062 172.835938 120.585938 172.75 C 122.882812 172.59375 133.191406 166.796875 143.152344 167.507812 C 148.148438 167.871094 150.164062 168.417969 150.441406 166.414062 Z M 224.808594 166.605469 C 224.945312 168.335938 226.679688 168.375 228.332031 168.164062 C 246.914062 165.777344 253.414062 173.257812 255.445312 169.195312 C 257.519531 165.039062 224.410156 161.394531 224.808594 166.605469 Z M 224.808594 166.605469 "/>
</g>
</g>
</svg>
